<?xml version="1.0" encoding="utf-8"?>
<!-- Generator: Adobe Illustrator 18.1.1, SVG Export Plug-In . SVG Version: 6.00 Build 0)  -->
<svg version="1.1" id="Capa_1" xmlns="http://www.w3.org/2000/svg" xmlns:xlink="http://www.w3.org/1999/xlink" x="0px" y="0px"
	 viewBox="0 0 373.998 373.998" fill="white" style="enable-background:new 0 0 373.998 373.998;" xml:space="preserve">
<g>
	<g id="Layer_5_28_">
		<g>
			<path d="M218.358,293.451c18.562-20.2,0.672-66.832-39.959-104.161c-40.619-37.322-88.608-51.213-107.168-31.013
				c-9.186,10-11.488,24.792-4.479,43.407c0.092,0.246,0.255,0.856,1.029-0.068c5.942-7.119,11.566-14.255,18.476-23.534
				c0,0,0.342-0.54,0.775-0.824c0.399-0.26,0.835-0.416,0.835-0.416c1.019-0.404,27.383-7.874,72.235,33.334
				c1.529,1.406,4.534,7.058,1.265,10c-3.333,3-8.718,1.456-10.167,0.167c-0.012-0.013-4.032-3.599-5.955-5.248
				c-32.518-27.77-52.972-28.678-55.556-25.276c-8.495,11.18-10.772,14.369-17.247,22.008
				c-28.616,33.724-46.453,44.609-56.95,51.009C6.208,268.49,4.78,269.36,5.208,279.582c0.824,19.432,19.936,42.348,30.872,53.935
				c1.814,1.927,3.4,3.526,4.645,4.758c1.629,1.611,2.659,2.564,2.824,2.726l0.02-0.021c12.733,11.907,39.234,33.887,60.454,32.991
				c26.097-1.105,4.714-14.441,65.983-75.455C190.697,305.185,208.61,304.065,218.358,293.451z M117.035,354.26
				c-2.785,1.566-7.391,1.171-8.173-0.761c-0.057-0.139-1.418-3.369-4.185-8.458c-5.015-9.248-14.715-24.673-29.821-39.192
				c-2.308-2.212-4.749-4.417-7.318-6.563c-9.969-8.356-21.908-15.977-35.947-21.393c-2.635-1.019-5.309-1.982-8.092-2.831
				c-1.989-0.592-3.02-4.875-1.547-7.136c2.333-3.583,6.064-3.389,8.05-2.781c18.948,5.784,34.514,15.248,47.053,25.741
				c1.793,1.501,3.517,3.017,5.187,4.551c0.702,0.644,1.354,1.293,2.028,1.944c24.413,23.287,35.174,48.894,35.849,50.545
				C120.898,349.839,119.702,352.76,117.035,354.26z"/>
			<g>
				<path d="M201.072,123.48c1.438-0.809,2.425-0.135,2.192,1.499l-1.432,10.066c-0.232,1.633,0.57,3.884,1.785,5.002l7.482,6.887
					c1.214,1.117,0.877,2.264-0.748,2.548l-10.018,1.75c-1.625,0.284-3.518,1.744-4.205,3.243l-4.236,9.244
					c-0.688,1.5-1.882,1.534-2.654,0.076l-4.76-8.986c-0.772-1.458-2.745-2.807-4.384-2.997l-10.101-1.173
					c-1.639-0.19-2.041-1.316-0.893-2.501l7.074-7.302c1.148-1.185,1.821-3.479,1.496-5.096l-2.004-9.97
					c-0.326-1.618,0.621-2.347,2.103-1.622l9.131,4.472c1.482,0.726,3.871,0.657,5.309-0.152L201.072,123.48z"/>
			</g>
			<g>
				<path d="M230.197,188.477c1.642-0.167,2.275,0.847,1.409,2.251l-3.562,5.771c-0.866,1.404-1.03,3.789-0.365,5.298l2.733,6.205
					c0.666,1.51-0.102,2.426-1.705,2.036l-6.588-1.604c-1.604-0.39-3.922,0.19-5.151,1.29l-5.056,4.519
					c-1.229,1.1-2.338,0.653-2.463-0.992l-0.511-6.761c-0.125-1.646-1.393-3.671-2.818-4.502l-5.86-3.413
					c-1.426-0.83-1.344-2.022,0.183-2.649l6.272-2.575c1.526-0.626,3.061-2.459,3.41-4.071l1.434-6.628
					c0.349-1.613,1.508-1.903,2.575-0.645l4.388,5.169c1.068,1.258,3.285,2.151,4.926,1.985L230.197,188.477z"/>
			</g>
			<g>
				<path d="M367.441,6.979l-6.751-5.936c-0.738-0.651-1.691-1.021-2.682-1.042c-1.245-0.027-2.43,0.487-3.248,1.412
					l-91.288,102.855c-1.53,1.729-1.383,4.398,0.328,5.948l6.668,6.035c0.736,0.67,1.697,1.053,2.693,1.074
					c1.226,0.027,2.396-0.484,3.207-1.399l91.441-103.031c0.739-0.837,1.109-1.914,1.04-3.033
					C368.779,8.742,368.28,7.719,367.441,6.979z"/>
				<path d="M252.169,123.624c-0.73-0.663-1.673-1.04-2.647-1.061c-1.232-0.027-2.399,0.5-3.202,1.448l-14.076,16.61
					c-1.491,1.761-1.295,4.433,0.438,5.958l6.749,5.938c0.73,0.643,1.669,1.008,2.637,1.029c1.252,0.027,2.434-0.506,3.243-1.462
					l13.921-16.435c1.488-1.756,1.311-4.443-0.397-5.99L252.169,123.624z"/>
			</g>
		</g>
	</g>
</g>
<g>
</g>
<g>
</g>
<g>
</g>
<g>
</g>
<g>
</g>
<g>
</g>
<g>
</g>
<g>
</g>
<g>
</g>
<g>
</g>
<g>
</g>
<g>
</g>
<g>
</g>
<g>
</g>
<g>
</g>
</svg>
